<?xml version="1.0" encoding="utf-8"?>
<!-- Generator: Adobe Illustrator 23.1.1, SVG Export Plug-In . SVG Version: 6.00 Build 0)  -->
<svg version="1.1" id="Layer_1" xmlns="http://www.w3.org/2000/svg" xmlns:xlink="http://www.w3.org/1999/xlink" x="0px" y="0px"
	 viewBox="0 0 478 316.6" style="enable-background:new 0 0 478 316.6;" xml:space="preserve">
<style type="text/css">
	.st0{fill:#FFFFFF;}
</style>
<g>
	<path class="st0" d="M258.3,88.8h25.1v-28h-25.1L258.3,88.8L258.3,88.8z M277.5,82.8h-13.1v-3.2l12.9-12.9h0.3L277.5,82.8
		L277.5,82.8z M268.7,66.8l-4.4,4.4v-4.4H268.7z"/>
	<path class="st0" d="M171.3,131.1h34.6v-24h-34.6V131.1z M194.8,125.1l5.1-5.1v5.1H194.8z M199.9,113.1L199.9,113.1L199.9,113.1
		L199.9,113.1z M177.3,113.1h20.9l-12,12h-8.9V113.1z"/>
	<path class="st0" d="M247.9,154.2l-0.1-0.1l-0.1,0.1h-30.9V178h57.7v-23.9H247.9z M262.7,160.2L250.8,172h-12.5l11.9-11.9H262.7z
		 M222.9,160.2h18.9L229.8,172h-7L222.9,160.2L222.9,160.2z M259.3,172l9.2-9.2v9.2H259.3z"/>
	<path class="st0" d="M284.9,154.2V178h23.6v-23.9H284.9z M302.6,172h-11.6v-11.9h11.6V172z"/>
	<path class="st0" d="M216.9,130.9h57.6V107h-57.6V130.9z M222.9,113.1h45.6v11.9h-45.6V113.1z"/>
	<path class="st0" d="M284.9,107.1v23.9h23.6V107C308.6,107,284.9,107,284.9,107.1z M290.9,124.9V113h9.1l-3.8,3.8l4.2,4.2l2.1-2.1
		v6L290.9,124.9L290.9,124.9z"/>
	<rect x="183.6" y="165.9" class="st0" width="10.1" height="11.8"/>
	<rect x="183.6" y="183.5" class="st0" width="10.1" height="11.8"/>
	<path class="st0" d="M127.5,140.3c3.3,0,6.6-0.4,9.6-1.1c5.2-1.2,9.5-7.8,9.5-14.5c0-6.2-3.8-10.7-10.1-12.2
		c-3.5-0.8-6.7-0.2-9.5,1.9c-0.5,0.4-0.9,0.8-1.4,1.2c-1.5-1.6-3-2.7-4.4-3.1c-3.6-0.9-8.1,0.6-10.9,3.8c-1.8,2.1-4.5,6.6-1.8,13.7
		C111.4,137.7,119.3,140.3,127.5,140.3z M130.6,119.2c1.3-1,2.8-1.2,4.5-0.8c3.6,0.8,5.5,3,5.5,6.3c0,3.6-2.2,7.4-4.2,8.4
		c-1.2-2.7-3.9-8.1-7-12.7C129.8,119.9,130.2,119.6,130.6,119.2z M126.2,126.5c1.6,2.6,3.2,5.4,4.1,7.6c-1.8,0.1-3.8,0.2-5.8,0
		C124.8,132,125.3,129.2,126.2,126.5z M114.8,120.3c1.3-1.4,3.1-2,4.3-2c0.2,0,0.4,0,0.6,0.1c0.6,0.2,1.5,1.1,2.4,2.3
		c-2.1,4.1-3,8.8-3.5,12c-2-1-3.6-2.5-4.5-4.7C112.9,124.8,113.1,122.2,114.8,120.3z"/>
	<path class="st0" d="M358.1,177.7c7.2-1.5,12.7-8.2,12.7-16.2c0-6.7-3.8-12.4-9.3-15c2.6-2.1,4.4-5.4,4.4-9.1
		c0-6.3-4.9-11.4-10.9-11.4c-6,0-10.9,5.1-10.9,11.4c0,3.7,1.8,7.1,4.4,9.1c-5.4,2.6-9.2,8.3-9.2,15c0,8,5.5,14.7,12.7,16.2v24
		h-10.5v-12.9h-14.5h-2v-87.6h16V68.7L317,44.4h-26.3l-19.8-30.6l-19.8,30.6h-63V26.5v-3h-6h-20.9v21.1l-22.3,24.2v26.4h-7.1l0,3
		c0,0-0.1,2.5-1.5,3.9c-0.7,0.8-1.8,1.1-3.2,1.1c-2,0-2.6-0.7-2.8-0.9c-0.4-0.4-0.6-1-0.8-1.6c1.8-1.2,2.9-3.2,2.9-5.5
		c0-3.6-2.9-6.6-6.6-6.6s-6.6,2.9-6.6,6.6c0,2.8,1.7,5.2,4.2,6.1c0.3,1.6,0.9,3.4,2.2,4.9c1.2,1.4,3.4,3,7.3,3c3,0,5.6-1,7.5-2.9
		c1.6-1.6,2.4-3.6,2.8-5.2h1.4v0h16v87.6h-16.5v12.9h-28v6h34v-12.9h16.5v-50h158.2v44H205.9v-34.6h-34.6v53.5h34.6v-12.9h113.2h8
		h8.5v12.9h34v-6h-11.5L358.1,177.7L358.1,177.7z M355,132.1c2.7,0,4.9,2.4,4.9,5.4s-2.2,5.4-4.9,5.4s-4.9-2.4-4.9-5.4
		S352.3,132.1,355,132.1z M345.4,161.6c0-5.8,4.4-10.5,9.7-10.5s9.7,4.7,9.7,10.5s-4.4,10.5-9.7,10.5
		C349.7,172,345.4,167.3,345.4,161.6z M322.1,98.1h-0.1H322.1L322.1,98.1z M314.5,50.4l20.6,20.8v24h-11.5l-29-44.8H314.5z
		 M167.2,29.5h14.9v14.9h-14.9V29.5z M144.8,95.1v-24L164,50.4h24.1h59.1l-29,44.8h-63.4H144.8z M160.8,138.8v-37.7h57.4h3.2
		l49.4-76.4l48.2,74.4v39.6L160.8,138.8L160.8,138.8z M199.9,201.7h-22.6v-41.5h22.6V201.7z"/>
	<g>
		<rect x="155.3" y="23.5" class="st0" width="37.9" height="6"/>
	</g>
</g>
<g>
	<path class="st0" d="M28.7,289.8H33c0.8,0,4,0.3,2.4,3c-1.4,2.2-3.7,3.3-6.7,3.3c-4.1,0-8.5-3.6-8.5-9.2c0-5.6,4.5-9.1,8.5-9.1
		c2.3,0,4.7,1,6.4,3l2.6-2.7c-2.2-2.3-5.4-3.7-8.9-3.7c-6.9,0-12.5,5.6-12.5,12.5c0,6.9,5.6,12.5,12.5,12.5
		c7.6,0,11.6-4.9,11.6-12.5v-0.2H28.7V289.8z"/>
	<path class="st0" d="M64,289.7c0,4.6-2.5,6.2-5.4,6.2c-2.8,0-5.2-1.5-5.2-6.2v-15.2h-3.7v15.2c0,5.9,4.2,9.7,9,9.7
		c4.8,0,8.9-3.8,8.9-9.7v-15.2H64C64,274.5,64,289.7,64,289.7z"/>
	<path class="st0" d="M89,284.5l-3.1-0.8c-1.4-0.4-2.3-1.8-2.3-2.9c0-1.5,1.5-3.5,3.7-3.5c2.1,0,3.6,1.1,3.6,2.7h3.8
		c0-3.2-3.5-6-7.4-6c-4.3,0-7.4,3-7.4,6.8c0,3.4,2.9,5.9,5.9,6.5c2.1,0.5,2.5,0.6,3.2,0.8c2,0.5,3.7,1.8,3.7,4c0,1.6-1.7,4-5.1,4
		c-2.8,0-4.9-2.7-4.9-4.4h-4.1c0,4.5,4.3,7.8,9.3,7.8c4.9,0,8.5-3.3,8.5-7.7C96.5,287.5,93.5,285.4,89,284.5z"/>
	<path class="st0" d="M105.6,277.8h3.2c0.6,0,2.9,0.3,2.9,3.1v18.2h3.6v-18.2c0,0,0.1-3.1,2.5-3.1h3.6v-3.2h-15.9V277.8z"/>
	<path class="st0" d="M138,273.9l-9.9,25.1h3.7l1.8-4.8l0,0c0,0,0.8-2,2.4-2h5c0,0,1.9,0.1,2.4,1.5l1.9,5.3h3.7l-9.9-25.1L138,273.9
		L138,273.9z M139.7,284.1l0.2,0.5c0,0,0,0.1,0.1,0.1l0.7,1.8c0,0,0,0,0,0.1l0.2,0.7c0.7,1.8-1.4,2-1.4,2h-1.7c-2.3,0-1.5-2-1.5-2
		l0,0l1.5-3.9l0,0c0.6-1.6,1.4-0.6,1.4-0.6l0.4,1.1C139.6,284,139.6,284,139.7,284.1z"/>
	<path class="st0" d="M159.2,299.1h3.5v-9.5c0-2.5,1.7-2.5,1.7-2.5h7.2v-3.1h-7c-1.7-0.2-2-2.1-2-2.1v-1.7c0.3-2.3,2-2.4,2-2.4h7.7
		v-3.3h-13.2L159.2,299.1L159.2,299.1z"/>
	<path class="st0" d="M194,284.5l-3.1-0.8c-1.4-0.4-2.3-1.8-2.3-2.9c0-1.5,1.5-3.5,3.7-3.5c2.1,0,3.6,1.1,3.6,2.7h3.9
		c0-3.2-3.5-6-7.4-6c-4.3,0-7.4,3-7.4,6.8c0,3.4,2.9,5.9,5.9,6.5c2.1,0.5,2.5,0.6,3.1,0.8c2,0.5,3.7,1.8,3.7,4c0,1.6-1.7,4-5.1,4
		c-2.8,0-4.9-2.7-4.9-4.4h-4.1c0,4.5,4.3,7.8,9.4,7.8c4.9,0,8.5-3.3,8.5-7.7C201.5,287.5,198.4,285.4,194,284.5z"/>
	<path class="st0" d="M266.7,274.2c-7,0-12.6,5.6-12.6,12.6c0,7,5.6,12.6,12.6,12.6s12.6-5.7,12.6-12.6
		C279.4,279.8,273.7,274.2,266.7,274.2z M266.7,296.2c-4.2,0-8.6-3.6-8.6-9.3c0-5.6,4.5-9.3,8.6-9.3c4.2,0,8.7,3.7,8.7,9.3
		C275.4,292.5,270.9,296.2,266.7,296.2z"/>
	<path class="st0" d="M307.5,289.1c0,2-1.8,0.3-1.8,0.3l-13.9-15.4h-1.2v25h3.6v-14.9c0-0.2,0.1-1.9,1.5-0.3l0,0l14.2,15.7h1.2
		v-25.1h-3.6L307.5,289.1L307.5,289.1z"/>
	<path class="st0" d="M329.8,274.6H323v24.5h6.8c6.8,0,12.1-5.5,12.1-12.2C342,280,336.6,274.6,329.8,274.6z M329.8,295.8h-1
		c-1.9,0.1-2-2.1-2-2.1v-14.4c0,0,0-1.4,2.2-1.5h0.8c4.1,0,8.3,3.7,8.3,9C338.1,292.4,333.9,295.8,329.8,295.8z"/>
	<rect x="354.3" y="274.6" class="st0" width="3.7" height="24.5"/>
	<path class="st0" d="M369.6,277.8h4.2l0.1,0.1c0,0,1.9-0.4,1.9,1.8v19.4h3.6v-19.4c0,0,0.2-1.8,1.7-1.9h4.4v-3.2h-15.9V277.8z"/>
	<path class="st0" d="M406.8,274.2c-7,0-12.6,5.6-12.6,12.6c0,7,5.6,12.6,12.6,12.6s12.6-5.7,12.6-12.6
		C419.5,279.8,413.8,274.2,406.8,274.2z M406.8,296.2c-4.2,0-8.6-3.6-8.6-9.3c0-5.6,4.5-9.3,8.6-9.3c4.2,0,8.7,3.7,8.7,9.3
		C415.5,292.5,411,296.2,406.8,296.2z"/>
	<rect x="458.1" y="274.6" class="st0" width="3.7" height="24.5"/>
	<path class="st0" d="M237.8,287.2c-0.6-0.7-0.4-1.2-0.2-1.5l0.2-0.3l0,0l0,0l8.2-10.8h-4.6l-7.6,10.1c-0.2,0.1-0.5,0.2-0.7,0.2
		c-0.7,0-0.9-0.7-0.9-1.3v-9h-3.7v24.5h3.7v-10.7c0.1-0.1,0.2-0.2,0.4-0.2c1.1,0,1.6,0.6,1.6,0.6l0,0l8.8,10.3h4.9L237.8,287.2
		L237.8,287.2z"/>
	<path class="st0" d="M439.9,288.1L439.9,288.1c2.6-1.2,3.9-3,3.9-6.3c0-4.1-3.1-7.2-9.1-7.2h-4.5v24.5h3.4v-9.8
		c0.1-0.1,0.2-0.2,0.3-0.2c0.7,0.1,1.5,0.7,1.5,0.7l0,0l7.8,9.2h4.2l-8-9.5C438.7,288.6,439.9,288.1,439.9,288.1z M440.3,281.9
		c0,1.8-0.7,3.8-5.1,4c-1.3,0.1-1.6-1.5-1.6-1.5v-4.8c0,0,0.2-1.8,1.4-1.8C439.5,277.9,440.3,280.1,440.3,281.9z"/>
</g>
</svg>
